<?xml version="1.0" standalone="no"?>
<!DOCTYPE svg PUBLIC "-//W3C//DTD SVG 1.1//EN" "http://www.w3.org/Graphics/SVG/1.1/DTD/svg11.dtd" >
<svg xmlns="http://www.w3.org/2000/svg">
<metadata></metadata>
<defs>
<font id="bignoodletitlingoblique" horiz-adv-x="806" >
<font-face units-per-em="2048" ascent="1638" descent="-410" />
<missing-glyph horiz-adv-x="321" />
<glyph horiz-adv-x="2048" />
<glyph horiz-adv-x="2048" />
<glyph unicode="&#xd;" horiz-adv-x="581" />
<glyph unicode=" "  horiz-adv-x="321" />
<glyph unicode="&#x09;" horiz-adv-x="321" />
<glyph unicode="&#xa0;" horiz-adv-x="321" />
<glyph unicode="!" horiz-adv-x="391" d="M59 0l13 250h204l-12 -250h-205zM98 397l29 1073h213l-80 -1073h-162z" />
<glyph unicode="&#x22;" horiz-adv-x="550" d="M43 860l6 610h191l-54 -610h-143zM332 860l6 610h192l-55 -610h-143z" />
<glyph unicode="#" horiz-adv-x="933" d="M-18 360l20 140h160l84 481h-158l21 139h159l60 350h137l-62 -350h203l62 350h137l-62 -350h150l-23 -139h-149l-84 -481h147l-20 -140h-152l-61 -360h-135l59 360h-203l-59 -360h-137l61 360h-155zM297 500h203l86 481h-203z" />
<glyph unicode="$" horiz-adv-x="751" d="M45 270l4 74h193l-6 -80q-4 -86 81 -86h35q76 0 80 86l14 244q2 41 -14 55.5t-49 36.5l-176 105q-59 33 -85 55t-36 58t-8 93l16 308q12 248 236 251l8 156h137l-8 -156q221 -6 209 -251l-8 -144h-193l6 129q6 88 -78 88h-30q-82 0 -88 -88l-13 -250q-2 -41 13.5 -55 t50.5 -37l176 -100q59 -35 82.5 -54.5t37 -47t9.5 -105.5l-16 -307q-12 -242 -234 -248l-8 -156h-137l8 156q-223 4 -209 270z" />
<glyph unicode="%" horiz-adv-x="1243" d="M84 838l25 479q8 154 167 153h64q160 0 152 -153l-25 -479q-8 -154 -168 -154h-63q-160 0 -152 154zM215 852q-2 -57 43 -57h29q47 0 49 57l24 448q2 58 -45 58h-28q-45 0 -47 -58zM293 0l532 1470h123l-532 -1470h-123zM750 154l24 479q8 154 168 153h64q160 0 151 -153 l-24 -479q-8 -154 -168 -154h-64q-160 0 -151 154zM881 168q-2 -57 43 -57h28q47 0 49 57l23 448q4 58 -43 58h-29q-45 0 -49 -58z" />
<glyph unicode="&#x26;" horiz-adv-x="749" d="M53 250l19 334q5 135 161 176q-127 31 -120 158l16 301q12 252 244 251h76q231 0 219 -251l-6 -129h-183l6 131q4 86 -84 86h-20q-68 -12 -72 -86l-16 -291q-4 -106 84 -107h356l-8 -145h-86l-23 -428q-12 -250 -245 -250h-97q-233 0 -221 250zM233 250q-4 -86 84 -86h37 q76 0 80 86l23 428h-86q-115 0 -121 -107z" />
<glyph unicode="'" horiz-adv-x="239" d="M33 860l6 610h190l-55 -610h-141z" />
<glyph unicode="(" horiz-adv-x="411" d="M63 -125l72 1344q12 252 232 251h92l-8 -155h-60q-84 0 -90 -105l-68 -1327q-6 -104 78 -104h60l-9 -154h-92q-219 0 -207 250z" />
<glyph unicode=")" horiz-adv-x="411" d="M-47 -375h90q219 0 231 250l72 1344q12 252 -207 251h-92l-8 -155h59q84 0 78 -105l-67 -1327q-6 -104 -91 -104h-57z" />
<glyph unicode="*" horiz-adv-x="692" d="M53 1315l125 160l131 -148l17 12l28 211l185 -63l-111 -184l8 -15l205 49l-2 -180l-197 29l-8 -15l113 -161l-170 -97l-45 209l-19 6l-153 -155l-105 149l185 88l-4 19z" />
<glyph unicode="+" horiz-adv-x="763" d="M74 614l10 172h221l12 238h177l-13 -238h207l-10 -172h-207l-12 -229h-176l12 229h-221z" />
<glyph unicode="," horiz-adv-x="333" d="M47 -244l105 244h-95l15 254h215l-15 -254l-108 -244h-117z" />
<glyph unicode="-" horiz-adv-x="491" d="M18 575l11 164h442l-10 -164h-443z" />
<glyph unicode="." horiz-adv-x="323" d="M51 0l15 250h204l-14 -250h-205z" />
<glyph unicode="/" horiz-adv-x="575" d="M-43 -102l524 1675h137l-528 -1675h-133z" />
<glyph unicode="0" horiz-adv-x="776" d="M63 252l52 967q12 252 243 251h134q231 0 219 -251l-52 -967q-12 -252 -243 -252h-133q-231 0 -220 252zM256 264q-4 -86 82 -86h49q76 0 80 86l51 942q4 86 -82 86h-49q-76 0 -80 -86z" />
<glyph unicode="1" horiz-adv-x="485" d="M57 1280q76 29 131.5 80t87.5 110h19l125 -69l-74 -1401h-190l61 1182l-123 -37z" />
<glyph unicode="2" horiz-adv-x="739" d="M68 0l22 453q2 37 9 61.5t24.5 46t58.5 60.5l203 190q23 23 37 39t19 27.5t7.5 23.5t4.5 33l14 272q4 86 -78 86h-12q-82 0 -86 -86l-8 -151h-193l8 164q12 252 242 251h100q231 0 219 -251l-18 -353q-2 -41 -15.5 -71.5t-60.5 -75.5l-223 -209q-43 -39 -49 -53.5 t-8 -28.5t-2 -39l-13 -213h324l-8 -176h-518z" />
<glyph unicode="3" horiz-adv-x="747" d="M49 250l6 94h193l-6 -80q-4 -86 71 -86h45q86 0 91 86l16 303q6 96 -107 97h-51l8 165h27q113 0 117 97l14 278q6 86 -80 86h-26q-76 0 -82 -86l-6 -149h-193l8 164q12 252 244 251h113q229 0 217 -251l-17 -293q-6 -139 -133 -170q147 -41 139 -187l-16 -319 q-12 -250 -244 -250h-129q-231 0 -219 250z" />
<glyph unicode="4" horiz-adv-x="735" d="M16 510l424 960h193l-49 -960h110l-8 -166h-111l-18 -344h-188l18 344h-338zM221 510h180l41 569h-10z" />
<glyph unicode="5" horiz-adv-x="729" d="M53 250l6 94h193l-6 -80q-4 -86 71 -86h23q86 0 90 86l19 336q6 96 -74 96h-291l39 774h543l-9 -182h-362l-23 -414h152q231 0 217 -260l-18 -354q-12 -260 -244 -260h-107q-231 0 -219 250z" />
<glyph unicode="6" horiz-adv-x="772" d="M63 248l52 971q12 252 233 251h137q221 0 209 -251l-8 -164h-192l6 131q6 106 -80 106h-33q-76 0 -80 -86l-24 -446l125 82h57q221 0 209 -252l-19 -342q-12 -248 -233 -248h-150q-221 0 -209 248zM258 266q-6 -88 78 -88h37q86 0 92 88l14 291q6 106 -80 107h-120z" />
<glyph unicode="7" horiz-adv-x="608" d="M49 1288l8 182h504l49 -106l-327 -1364h-191l316 1288h-359z" />
<glyph unicode="8" horiz-adv-x="768" d="M53 250l17 323q7 136 161 177q-135 31 -129 178l17 291q12 252 243 251h117q231 0 219 -251l-16 -293q-6 -147 -135 -178q139 -41 131 -177l-16 -321q-12 -250 -244 -250h-146q-231 0 -219 250zM248 285q-6 -107 80 -107h51q86 0 92 107l14 274q6 104 -104 105 q-113 -2 -119 -103zM297 940q-6 -106 80 -106h22q86 14 93 104l12 246q6 106 -80 106h-23q-86 0 -92 -106z" />
<glyph unicode="9" horiz-adv-x="768" d="M76 262l6 82h192l-4 -59q-6 -106 80 -107h29q76 0 80 86l20 357l-127 -82h-43q-231 0 -217 262l23 411q12 258 243 258h125q231 0 219 -258l-51 -950q-12 -262 -243 -262h-115q-229 0 -217 262zM287 823q-6 -106 80 -106h116l25 487q6 88 -88 88h-23q-86 0 -92 -88z" />
<glyph unicode=":" horiz-adv-x="319" d="M27 0l12 250h205l-13 -250h-204zM70 805l12 250h205l-13 -250h-204z" />
<glyph unicode=";" horiz-adv-x="321" d="M49 -244l105 244h-95l15 254h215l-15 -254l-108 -244h-117zM76 805l12 250h205l-12 -250h-205z" />
<glyph unicode="&#x3c;" horiz-adv-x="618" d="M18 569l476 -471l12 240l-305 295l336 297l12 244l-524 -476z" />
<glyph unicode="=" horiz-adv-x="741" d="M66 455l8 168h581l-8 -168h-581zM84 786l8 168h582l-8 -168h-582z" />
<glyph unicode="&#x3e;" horiz-adv-x="618" d="M68 94l524 475l6 131l-475 469l-12 -239l305 -295l-336 -297z" />
<glyph unicode="?" horiz-adv-x="753" d="M68 1096l6 123q12 252 243 251h164q229 0 217 -251l-16 -299q-2 -45 -10 -70t-24.5 -41t-41.5 -35l-139 -106q-27 -18 -34 -36t-9 -59l-8 -176h-193l13 248q2 45 11 69.5t20.5 39t41.5 37.5l144 104q25 20 32 37.5t9 58.5l10 211q6 90 -78 90h-76q-80 0 -86 -90l-4 -106 h-192zM201 0l12 250h205l-12 -250h-205z" />
<glyph unicode="@" horiz-adv-x="1120" d="M61 0l58 1092q8 190 112.5 285.5t260.5 92.5h180q215 0 296 -93t72 -240l-49 -920h-373l19 356h-156l-18 -356h-144l46 840q8 186 178 186h100q172 0 164 -186l-39 -719h98l41 788q6 111 -51 164t-184 53h-180q-113 -2 -174.5 -66.5t-67.5 -176.5l-51 -971h788l-6 -129 h-920zM489 707h156l19 342q2 63 -60 63h-33q-61 0 -63 -63z" />
<glyph unicode="A" horiz-adv-x="765" d="M41 0l63 1219q12 251 242 251h2h144q220 0 219 -227v-24l-64 -1219h-192l26 539h-221l-27 -539h-192zM270 717h222l26 489v8q0 78 -80 78h-53q-84 0 -88 -86z" />
<glyph unicode="B" horiz-adv-x="765" d="M51 0l76 1470h330q242 0 241 -237v-29l-14 -282q-6 -127 -145 -156v-10q149 -43 149 -158v-10l-20 -369q-10 -219 -230 -219h-387zM252 178h145q76 0 80 64l17 325v10q0 94 -109 95h-106zM287 850h90q111 0 117 106l12 230v13q0 93 -80 93h-115z" />
<glyph unicode="C" horiz-adv-x="724" d="M53 250l51 971q12 249 242 249h2h123q220 0 219 -225v-24l-8 -166h-193l9 151v7q0 79 -82 79h-39q-76 0 -80 -86l-51 -942q0 -4 -1 -8q0 -78 72 -78h50q76 0 79 86l7 80h192l-6 -94q-12 -250 -244 -250h-123q-220 0 -220 226q0 12 1 24z" />
<glyph unicode="D" horiz-adv-x="776" d="M51 0l76 1470h336q257 0 256 -255v-27l-51 -975q-10 -213 -242 -213h-375zM252 178h145q76 0 80 66l49 942v13q0 93 -80 93h-135z" />
<glyph unicode="E" horiz-adv-x="616" d="M51 0l76 1470h479l-8 -178h-287l-24 -446h254l-9 -178h-253l-27 -490h287l-9 -178h-479z" />
<glyph unicode="F" horiz-adv-x="608" d="M51 0l76 1470h479l-8 -178h-287l-24 -446h254l-9 -178h-253l-35 -668h-193z" />
<glyph unicode="G" horiz-adv-x="745" d="M53 248l51 971q12 251 234 251h2h131q235 0 235 -233q0 -11 -1 -23l-9 -159h-192l6 131v14q0 92 -76 92h-49q-84 0 -90 -106l-47 -901v-14q0 -92 78 -93h131l18 361h-100l10 178h293l-37 -717h-377q-212 0 -212 223q0 12 1 25z" />
<glyph unicode="H" horiz-adv-x="802" d="M51 0l76 1470h192l-32 -624h237l33 624h193l-76 -1470h-193l35 668h-237l-35 -668h-193z" />
<glyph unicode="I" horiz-adv-x="372" d="M51 0l76 1470h192l-75 -1470h-193z" />
<glyph unicode="J" horiz-adv-x="516" d="M-16 0l8 178h125q86 0 92 107l61 1185h193l-64 -1222q-12 -248 -235 -248h-180z" />
<glyph unicode="K" horiz-adv-x="747" d="M51 0l76 1470h192l-75 -1470h-193zM291 719v12l239 739h177l-240 -731l221 -739h-192z" />
<glyph unicode="L" horiz-adv-x="569" d="M51 0l76 1470h192l-67 -1292h266l-8 -178h-459z" />
<glyph unicode="M" horiz-adv-x="962" d="M51 0l76 1470h213l133 -864l223 864h213l-75 -1470h-193l70 963l-181 -697h-147l-111 697l-28 -963h-193z" />
<glyph unicode="N" horiz-adv-x="772" d="M51 0l76 1470h192l170 -710l37 710h193l-76 -1470h-192l14 293l-172 670l-49 -963h-193z" />
<glyph unicode="O" d="M53 250l51 969q12 251 242 251h2h184q220 0 220 -229v-22l-52 -969q-12 -250 -245 -250h-181q-222 0 -222 226q0 12 1 24zM246 264q0 -4 -1 -7q0 -79 83 -79h98q78 0 82 86l51 942v7q0 79 -82 79h-92q-84 0 -88 -86z" />
<glyph unicode="P" horiz-adv-x="735" d="M51 0l76 1470h350q222 0 221 -227v-24l-22 -437q-14 -250 -246 -250h-160l-26 -532h-193zM281 711h122q76 0 80 86l23 409v7q0 79 -82 79h-113z" />
<glyph unicode="Q" horiz-adv-x="835" d="M53 248l51 971q12 251 240 251h2h186q219 0 219 -229q0 -10 -1 -22l-56 -1041h111l-8 -178h-525q-220 0 -220 224q0 12 1 24zM246 264v-7q0 -79 82 -79h174l55 1028v7q0 79 -82 79h-90q-84 0 -88 -86z" />
<glyph unicode="R" horiz-adv-x="757" d="M51 0l76 1470h377q210 0 209 -226v-25l-19 -363q-10 -193 -129 -244l105 -612h-183l-96 594h-117l-30 -594h-193zM283 762h127q86 0 92 106l16 318v13q0 93 -80 93h-127z" />
<glyph unicode="S" horiz-adv-x="720" d="M45 270l4 74h193l-6 -80v-8q0 -78 81 -78h35q76 0 80 86l14 250q2 41 -13 55.5t-50 36.5l-176 105q-59 33 -85 55t-36 58q-8 30 -8 75v19l16 301q12 251 242 251h2h119q220 0 219 -227v-24l-8 -144h-193l6 129v11q0 77 -78 77h-30q-82 0 -88 -88l-13 -243 q-2 -41 13.5 -55.5t50.5 -37.5l176 -100q59 -35 82.5 -54.5t37.5 -47.5q10 -21 10 -72q0 -15 -1 -33l-16 -313q-12 -248 -246 -248h-117q-218 0 -218 240q0 15 1 30z" />
<glyph unicode="T" horiz-adv-x="602" d="M49 1292l8 178h561l-8 -178h-184l-68 -1292h-192l67 1292h-184z" />
<glyph unicode="U" d="M66 281l61 1189h192l-61 -1196q0 -6 -1 -12q0 -84 79 -84h80q78 0 84 96l61 1196h193l-62 -1191q-14 -279 -248 -279h-161q-218 0 -218 250q0 15 1 31z" />
<glyph unicode="V" horiz-adv-x="733" d="M55 1470h193l98 -1122l213 1122h193l-310 -1470h-229z" />
<glyph unicode="W" horiz-adv-x="1116" d="M55 1470h191l80 -1101l194 1101h150l80 -1101l194 1101h191l-289 -1470h-209l-76 852l-160 -852h-208z" />
<glyph unicode="X" horiz-adv-x="669" d="M-8 0l219 743l-133 727h188l80 -542h4l150 542h178l-209 -727l129 -743h-186l-80 559h-4l-160 -559h-176z" />
<glyph unicode="Y" horiz-adv-x="702" d="M57 1470h191l112 -639h7l163 639h191l-281 -929l-28 -541h-193l29 541z" />
<glyph unicode="Z" horiz-adv-x="587" d="M-14 70l366 1220h-272l8 180h436l37 -84l-350 -1208h326l-9 -178h-530z" />
<glyph unicode="[" horiz-adv-x="409" d="M51 -375l96 1845h310l-8 -145h-144l-80 -1554h144l-9 -146h-309z" />
<glyph unicode="\" horiz-adv-x="575" d="M43 1573h135l352 -1675h-135z" />
<glyph unicode="]" horiz-adv-x="409" d="M-47 -375l8 146h141l80 1554h-143l8 145h309l-96 -1845h-307z" />
<glyph unicode="_" horiz-adv-x="550" d="M-2 -145l4 145h551l-6 -145h-549z" />
<glyph unicode="`" horiz-adv-x="305" d="M23 1393h178l78 -242h-138z" />
<glyph unicode="a" horiz-adv-x="765" d="M41 0l63 1219q12 251 242 251h2h144q220 0 219 -227v-24l-64 -1219h-192l26 539h-221l-27 -539h-192zM270 717h222l26 489v8q0 78 -80 78h-53q-84 0 -88 -86z" />
<glyph unicode="b" horiz-adv-x="765" d="M51 0l76 1470h330q242 0 241 -237v-29l-14 -282q-6 -127 -145 -156v-10q149 -43 149 -158v-10l-20 -369q-10 -219 -230 -219h-387zM252 178h145q76 0 80 64l17 325v10q0 94 -109 95h-106zM287 850h90q111 0 117 106l12 230v13q0 93 -80 93h-115z" />
<glyph unicode="c" horiz-adv-x="727" d="M53 250l51 971q12 249 242 249h2h123q220 0 219 -225v-24l-8 -166h-193l9 151v7q0 79 -82 79h-39q-76 0 -80 -86l-51 -942q0 -4 -1 -8q0 -78 72 -78h50q76 0 79 86l7 80h192l-6 -94q-12 -250 -244 -250h-123q-220 0 -220 226q0 12 1 24z" />
<glyph unicode="d" horiz-adv-x="776" d="M51 0l76 1470h336q257 0 256 -255v-27l-51 -975q-10 -213 -242 -213h-375zM252 178h145q76 0 80 66l49 942v13q0 93 -80 93h-135z" />
<glyph unicode="e" horiz-adv-x="616" d="M51 0l76 1470h479l-8 -178h-287l-24 -446h254l-9 -178h-253l-27 -490h287l-9 -178h-479z" />
<glyph unicode="f" horiz-adv-x="608" d="M51 0l76 1470h479l-8 -178h-287l-24 -446h254l-9 -178h-253l-35 -668h-193z" />
<glyph unicode="g" horiz-adv-x="747" d="M53 248l51 971q12 251 234 251h2h131q235 0 235 -233q0 -11 -1 -23l-9 -159h-192l6 131v14q0 92 -76 92h-49q-84 0 -90 -106l-47 -901v-14q0 -92 78 -93h131l18 361h-100l10 178h293l-37 -717h-377q-212 0 -212 223q0 12 1 25z" />
<glyph unicode="h" horiz-adv-x="802" d="M51 0l76 1470h192l-32 -624h237l33 624h193l-76 -1470h-193l35 668h-237l-35 -668h-193z" />
<glyph unicode="i" horiz-adv-x="372" d="M51 0l76 1470h192l-75 -1470h-193z" />
<glyph unicode="j" horiz-adv-x="516" d="M-16 0l8 178h125q86 0 92 107l61 1185h193l-64 -1222q-12 -248 -235 -248h-180z" />
<glyph unicode="k" horiz-adv-x="747" d="M51 0l76 1470h192l-75 -1470h-193zM291 719v12l239 739h177l-240 -731l221 -739h-192z" />
<glyph unicode="l" horiz-adv-x="567" d="M51 0l76 1470h192l-67 -1292h266l-8 -178h-459z" />
<glyph unicode="m" horiz-adv-x="962" d="M51 0l76 1470h213l133 -864l223 864h213l-75 -1470h-193l70 963l-181 -697h-147l-111 697l-28 -963h-193z" />
<glyph unicode="n" horiz-adv-x="772" d="M51 0l76 1470h192l170 -710l37 710h193l-76 -1470h-192l14 293l-172 670l-49 -963h-193z" />
<glyph unicode="o" d="M53 250l51 969q12 251 242 251h2h184q220 0 220 -229v-22l-52 -969q-12 -250 -245 -250h-181q-222 0 -222 226q0 12 1 24zM246 264q0 -4 -1 -7q0 -79 83 -79h98q78 0 82 86l51 942v7q0 79 -82 79h-92q-84 0 -88 -86z" />
<glyph unicode="p" horiz-adv-x="737" d="M51 0l76 1470h350q222 0 222 -227q0 -12 -1 -24l-22 -437q-14 -250 -246 -250h-160l-26 -532h-193zM281 711h122q76 0 80 86l23 409v7q0 79 -82 79h-113z" />
<glyph unicode="q" horiz-adv-x="837" d="M53 248l51 971q12 251 240 251h2h186q219 0 219 -229q0 -10 -1 -22l-56 -1041h111l-8 -178h-525q-220 0 -220 224q0 12 1 24zM246 264v-7q0 -79 82 -79h174l55 1028v7q0 79 -82 79h-90q-84 0 -88 -86z" />
<glyph unicode="r" horiz-adv-x="757" d="M51 0l76 1470h377q210 0 209 -226v-25l-19 -363q-10 -193 -129 -244l105 -612h-183l-96 594h-117l-30 -594h-193zM283 762h127q86 0 92 106l16 318v13q0 93 -80 93h-127z" />
<glyph unicode="s" horiz-adv-x="722" d="M45 270l4 74h193l-6 -80v-8q0 -78 81 -78h35q76 0 80 86l14 250q2 41 -13 55.5t-50 36.5l-176 105q-59 33 -85 55t-36 58q-8 30 -8 75v19l16 301q12 251 242 251h2h119q220 0 219 -227v-24l-8 -144h-193l6 129v11q0 77 -78 77h-30q-82 0 -88 -88l-13 -243 q-2 -41 13.5 -55.5t50.5 -37.5l176 -100q59 -35 82.5 -54.5t37.5 -47.5q10 -21 10 -72q0 -15 -1 -33l-16 -313q-12 -248 -246 -248h-117q-218 0 -218 240q0 15 1 30z" />
<glyph unicode="t" horiz-adv-x="602" d="M49 1292l8 178h561l-8 -178h-184l-68 -1292h-192l67 1292h-184z" />
<glyph unicode="u" d="M66 281l61 1189h192l-61 -1196q0 -6 -1 -12q0 -84 79 -84h80q78 0 84 96l61 1196h193l-62 -1191q-14 -279 -248 -279h-161q-218 0 -218 250q0 15 1 31z" />
<glyph unicode="v" horiz-adv-x="735" d="M55 1470h193l98 -1122l213 1122h193l-310 -1470h-229z" />
<glyph unicode="w" horiz-adv-x="1118" d="M55 1470h191l80 -1101l194 1101h150l80 -1101l194 1101h191l-289 -1470h-209l-76 852l-160 -852h-208z" />
<glyph unicode="x" horiz-adv-x="667" d="M-8 0l219 743l-133 727h188l80 -542h4l150 542h178l-209 -727l129 -743h-186l-80 559h-4l-160 -559h-176z" />
<glyph unicode="y" horiz-adv-x="702" d="M57 1470h191l112 -639h7l163 639h191l-281 -929l-28 -541h-193l29 541z" />
<glyph unicode="z" horiz-adv-x="587" d="M-14 70l366 1220h-272l8 180h436l37 -84l-350 -1208h326l-9 -178h-530z" />
<glyph unicode="{" horiz-adv-x="456" d="M8 532l8 166q115 0 121 107l23 414q12 252 235 251h109l-8 -141h-76q-88 0 -92 -104l-25 -447q-6 -128 -133 -157q123 -41 117 -177l-31 -571q-4 -104 84 -104h76l-8 -142h-109q-223 0 -211 252l29 547q6 106 -109 106z" />
<glyph unicode="|" horiz-adv-x="380" d="M55 -164l92 1798h177l-93 -1798h-176z" />
<glyph unicode="}" horiz-adv-x="456" d="M-47 -373l8 142h72q88 0 92 104l31 571q6 136 135 177q-125 29 -119 157l25 447q4 104 -84 104h-74l8 141h109q221 0 209 -251l-23 -414q-6 -106 111 -107l-9 -166q-117 0 -122 -106l-29 -547q-12 -252 -234 -252h-106z" />
<glyph unicode="&#xa1;" horiz-adv-x="391" d="M53 0l80 1073h162l-29 -1073h-213zM117 1221l12 249h205l-12 -249h-205z" />
<glyph unicode="&#xa2;" horiz-adv-x="698" d="M63 502l35 637q10 209 201 209h6l6 122h140l-7 -122h7q193 0 182 -209l-6 -92h-172l4 75q4 80 -78 80h-19q-82 0 -86 -80l-30 -604q-4 -80 78 -80h18q82 0 86 80l4 70h172l-6 -86q-10 -209 -203 -209h-6l-6 -123h-139l6 123h-4q-193 0 -183 209z" />
<glyph unicode="&#xa3;" horiz-adv-x="788" d="M4 717l8 157h72l18 345q12 252 244 251h186q231 0 220 -251l-7 -129h-192l6 116q4 86 -84 86h-92q-84 0 -88 -86l-19 -332h222l-9 -157h-221l-28 -539h188q76 0 80 86l6 105h193l-7 -121q-12 -248 -243 -248h-418l37 717h-72z" />
<glyph unicode="&#xa4;" horiz-adv-x="770" d="M10 592l6 121h74l4 86h-74l7 119h73l17 301q12 252 241 251h136q233 0 221 -251l-4 -80h-193l2 65q6 88 -84 88h-39q-84 0 -88 -86l-16 -288h190l-6 -119h-190l-4 -86h123l-7 -121h-123l-18 -328q-4 -86 80 -86h49q80 0 84 82l4 59h193l-4 -71q-12 -248 -246 -248h-135 q-229 0 -217 258l18 334h-74z" />
<glyph unicode="&#xa5;" horiz-adv-x="702" d="M57 1470h191l112 -639h7l163 639h191l-281 -929l-2 -21h125l-6 -100h-125l-2 -66h125l-6 -100h-125l-12 -254h-193l12 254h-125l7 100h125l2 66h-125l6 100h125l2 21z" />
<glyph unicode="&#xa6;" horiz-adv-x="421" d="M72 -373h180l39 758h-180zM129 713h180l39 757h-180z" />
<glyph unicode="&#xa7;" horiz-adv-x="688" d="M53 209l6 110h174l-6 -96q-4 -80 76 -80q78 0 82 80l8 135q2 33 -6 53.5t-47 37.5l-129 49q-27 8 -51.5 19t-45 27.5t-29.5 40t-7 56.5l6 131q6 119 66 156q-25 20 -35.5 43.5t-8.5 58.5l13 232q10 209 205 208h127q193 0 182 -208l-4 -84h-174l4 67q4 80 -72 80 q-82 0 -86 -80l-8 -147q-2 -29 9 -38t36 -22l135 -53q31 -12 56.5 -23.5t43 -25.5t25.5 -36.5t6 -59.5l-6 -133q-6 -111 -63 -156q25 -16 35 -39t8 -59l-13 -244q-10 -209 -205 -209h-124q-193 0 -183 209zM262 715q-4 -80 78 -80q78 0 82 80l2 55q4 78 -74 78 q-82 0 -86 -78z" />
<glyph unicode="&#xa8;" horiz-adv-x="561" d="M74 1151l10 205h162l-10 -205h-162zM354 1151l11 205h161l-10 -205h-162z" />
<glyph unicode="&#xa9;" horiz-adv-x="1241" d="M68 322l43 823q16 326 311 325h471q295 0 278 -325l-43 -823q-16 -322 -311 -322h-471q-295 0 -278 322zM223 326q-10 -179 146 -179h434q158 0 168 179l43 817q10 180 -148 180h-434q-156 0 -166 -180zM356 451l31 567q10 209 205 209h104q195 0 185 -209l-7 -109h-161 l4 99q4 78 -78 77q-80 0 -84 -77l-29 -547q-4 -78 76 -78q82 0 86 78l6 88h162l-6 -98q-10 -209 -205 -209h-104q-195 0 -185 209z" />
<glyph unicode="&#xaa;" horiz-adv-x="602" d="M33 471l39 770q12 229 243 229h21q231 0 219 -229l-39 -770h-154l17 309h-176l-17 -309h-153zM209 918h176l16 325q6 92 -77 92h-9q-84 0 -90 -92z" />
<glyph unicode="&#xab;" horiz-adv-x="776" d="M23 713l190 -426h168l-184 426l227 426h-168zM336 713l190 -426h168l-184 426l227 426h-168z" />
<glyph unicode="&#xac;" horiz-adv-x="835" d="M84 614l8 172h660l-19 -360h-176l10 188h-483z" />
<glyph unicode="&#xad;" horiz-adv-x="491" d="M18 575l11 164h442l-10 -164h-443z" />
<glyph unicode="&#xae;" horiz-adv-x="1232" d="M68 322l43 823q16 326 311 325h463q295 0 278 -325l-43 -823q-16 -322 -311 -322h-463q-295 0 -278 322zM223 326q-10 -179 146 -179h426q158 0 168 179l43 817q10 180 -148 180h-426q-156 0 -166 -180zM350 250l51 958h330q152 0 141 -172l-12 -248q-6 -123 -96 -159 l78 -379h-152l-72 368h-77l-21 -368h-170zM547 760h82q59 0 63 74l8 151q4 72 -55 72h-82z" />
<glyph unicode="&#xaf;" horiz-adv-x="573" d="M31 1233h501l7 145h-502z" />
<glyph unicode="&#xb0;" horiz-adv-x="548" d="M59 1264q-4 -47 11.5 -87t42 -69t64.5 -46.5t83 -17.5t86 17.5t70.5 46.5t49 69t23.5 87q2 45 -13 85t-42.5 69.5t-66.5 47t-84 17.5t-85 -17.5t-69 -47t-48.5 -69.5t-21.5 -85zM152 1264q2 53 39.5 89t87.5 36q49 0 82.5 -36t31.5 -89q-4 -49 -42 -85t-87 -36t-82.5 36 t-29.5 85z" />
<glyph unicode="&#xb1;" horiz-adv-x="724" d="M62 272l10 174h520l-10 -174h-520zM84 835l10 172h221l12 238h177l-13 -238h207l-10 -172h-207l-12 -229h-176l12 229h-221z" />
<glyph unicode="&#xb2;" horiz-adv-x="475" d="M57 684l17 281q0 29 6 47t41 41l133 88q25 14 30 25.5t7 33.5l6 119q2 39 -35 39h-29q-37 0 -38 -39l-5 -59h-120l4 67q8 143 133 143h100q127 0 119 -143l-8 -168q-2 -29 -9.5 -45t-31.5 -33l-141 -96q-23 -14 -29 -24.5t-6 -34.5l-8 -131h200l-6 -111h-330z" />
<glyph unicode="&#xb3;" horiz-adv-x="503" d="M47 809l4 74h131l-4 -47q-2 -39 41 -39h37q41 0 43 43l8 139q2 55 -37 55l-57 2l6 97l41 2q43 0 45 47l8 139q2 37 -39 37h-22q-41 0 -43 -37l-4 -57h-131l4 55q8 152 133 151h117q125 0 116 -151l-8 -150q-4 -68 -74 -82q80 -23 78 -88l-10 -190q-8 -125 -133 -125h-133 q-125 0 -117 125z" />
<glyph unicode="&#xb4;" horiz-adv-x="303" d="M10 1151l107 242h178l-148 -242h-137z" />
<glyph unicode="&#xb6;" horiz-adv-x="940" d="M96 958l13 261q14 252 235 251h539l-88 -1675h-142l80 1528h-340q-86 0 -92 -106l-12 -248q-6 -106 80 -107h77l19 344h158l-74 -1411h-158l47 901h-135q-221 0 -207 262z" />
<glyph unicode="&#xb7;" horiz-adv-x="325" d="M80 573l15 250h204l-14 -250h-205z" />
<glyph unicode="&#xb8;" horiz-adv-x="446" d="M88 -373l4 92h92q51 0 56 50v28q4 57 -47 58h-80l10 198h104l-6 -116h19q111 0 104 -119l-4 -78q-6 -111 -119 -113h-133z" />
<glyph unicode="&#xb9;" horiz-adv-x="321" d="M41 1350q80 37 121 120h121l-43 -786h-131l32 598l-82 -25z" />
<glyph unicode="&#xba;" horiz-adv-x="501" d="M47 838l27 479q8 154 166 153h65q158 0 150 -153l-27 -479q-8 -154 -166 -154h-65q-158 0 -150 154zM180 852q-4 -57 39 -57h31q45 0 49 57l23 448q4 58 -41 58h-31q-43 0 -47 -58z" />
<glyph unicode="&#xbb;" horiz-adv-x="776" d="M37 287h168l235 426l-192 426h-168l188 -426zM350 287h168l236 426l-193 426h-168l189 -426z" />
<glyph unicode="&#xbc;" horiz-adv-x="1021" d="M63 -61l732 1593h118l-735 -1593h-115zM90 1350q82 37 119 120h121l-41 -786h-131l30 598l-79 -25zM461 258l233 496h172l-26 -494h75l-6 -113h-75l-7 -147h-129l7 147h-230zM602 260h109l28 334h-12z" />
<glyph unicode="&#xbd;" horiz-adv-x="1091" d="M63 -61l734 1593h118l-737 -1593h-115zM92 1350q80 37 119 120h119l-41 -786h-129l30 598l-79 -25zM639 0l14 281q2 29 8.5 47t38.5 41l134 88q27 14 30.5 25.5t5.5 33.5l7 119q2 39 -35 39h-29q-37 0 -39 -39l-4 -60h-121l4 68q8 143 133 143h103q125 0 117 -143 l-9 -168q-2 -29 -9 -45t-32 -33l-141 -96q-23 -14 -28 -24.5t-7 -34.5l-6 -131h201l-6 -111h-330z" />
<glyph unicode="&#xbe;" horiz-adv-x="1146" d="M82 809l4 74h131l-2 -47q-2 -39 41 -39h37q41 0 43 43l8 139q2 55 -37 55l-57 2l6 97l41 2q45 0 47 47l6 139q2 37 -41 37h-22q-41 0 -43 -37l-2 -57h-131l2 55q8 152 133 151h116q125 0 117 -151l-6 -150q-4 -68 -74 -82q80 -23 76 -88l-10 -190q-6 -125 -131 -125h-133 q-125 0 -119 125zM188 -61l734 1593h118l-737 -1593h-115zM588 258l233 496h172l-26 -494h73l-6 -113h-73l-7 -147h-131l6 147h-229zM727 260h109l28 334h-12z" />
<glyph unicode="&#xbf;" horiz-adv-x="753" d="M53 252l17 299q2 45 10 69.5t24.5 41t40.5 34.5l140 107q27 18 34 35.5t9 58.5l8 176h192l-12 -248q-2 -45 -11 -69.5t-20.5 -39t-42.5 -36.5l-143 -105q-25 -20 -32 -37.5t-9 -58.5l-10 -205q-6 -94 59 -94h94q80 0 86 94l2 50h193l-4 -72q-12 -252 -236 -252h-180 q-221 0 -209 252zM334 1221l12 249h205l-12 -249h-205z" />
<glyph unicode="&#xc0;" horiz-adv-x="765" d="M41 0l63 1219q12 252 244 251h144q231 0 219 -251l-64 -1219h-192l26 539h-221l-27 -539h-192zM267 1809h178l78 -242h-138zM270 717h222l26 489q4 86 -80 86h-53q-84 0 -88 -86z" />
<glyph unicode="&#xc1;" horiz-adv-x="765" d="M41 0l63 1219q12 252 244 251h144q231 0 219 -251l-64 -1219h-192l26 539h-221l-27 -539h-192zM262 1567l107 242h178l-148 -242h-137zM270 717h222l26 489q4 86 -80 86h-53q-84 0 -88 -86z" />
<glyph unicode="&#xc2;" horiz-adv-x="765" d="M41 0l63 1219q12 252 244 251h144q231 0 219 -251l-64 -1219h-192l26 539h-221l-27 -539h-192zM174 1567l185 229h118l164 -229h-149l-78 119l-90 -119h-150zM270 717h222l26 489q4 86 -80 86h-53q-84 0 -88 -86z" />
<glyph unicode="&#xc3;" horiz-adv-x="765" d="M41 0l63 1219q12 252 244 251h144q231 0 219 -251l-64 -1219h-192l26 539h-221l-27 -539h-192zM188 1567q4 88 48 131t106 47q20 0 34.5 -6t31 -14.5t32.5 -14.5t33 -6q20 4 34.5 17.5t18.5 40.5h104q-6 -90 -55 -136.5t-111 -48.5q-20 0 -37.5 6.5t-33 13.5t-27.5 14 t-28 7q-39 0 -52 -51h-98zM270 717h222l26 489q4 86 -80 86h-53q-84 0 -88 -86z" />
<glyph unicode="&#xc4;" horiz-adv-x="765" d="M41 0l63 1219q12 252 244 251h144q231 0 219 -251l-64 -1219h-192l26 539h-221l-27 -539h-192zM180 1567l10 205h162l-10 -205h-162zM270 717h222l26 489q4 86 -80 86h-53q-84 0 -88 -86zM460 1567l11 205h161l-10 -205h-162z" />
<glyph unicode="&#xc5;" horiz-adv-x="765" d="M41 0l63 1219q12 252 244 251h144q231 0 219 -251l-64 -1219h-192l26 539h-221l-27 -539h-192zM270 717h222l26 489q4 86 -80 86h-53q-84 0 -88 -86zM272 1671q-2 70 45 115t107 45q63 0 106 -45t45 -115q-2 -68 -45 -112.5t-106 -44.5q-59 0 -106.5 45t-45.5 112z M358 1671q-2 -31 17.5 -51t48.5 -20t48 20t21 51q-2 31 -21.5 51.5t-47.5 20.5q-29 0 -48.5 -20.5t-17.5 -51.5z" />
<glyph unicode="&#xc6;" horiz-adv-x="1021" d="M41 0l63 1219q12 252 244 251h662l-9 -178h-286l-25 -446h254l-8 -178h-254l-27 -490h287l-8 -178h-479l26 539h-219l-26 -539h-195zM272 717h220l30 575h-135q-84 0 -88 -86z" />
<glyph unicode="&#xc7;" horiz-adv-x="727" d="M53 250l51 971q12 250 244 249h123q231 0 219 -249l-8 -166h-193l9 151q4 86 -82 86h-39q-76 0 -80 -86l-51 -942q-4 -86 71 -86h50q76 0 79 86l7 80h192l-6 -94q-12 -250 -244 -250h-123q-231 0 -219 250zM242 -373l4 92h92q51 0 56 50v28q4 57 -47 58h-80l10 198h104 l-6 -116h19q111 0 104 -119l-4 -78q-6 -111 -119 -113h-133z" />
<glyph unicode="&#xc8;" horiz-adv-x="616" d="M51 0l76 1470h479l-8 -178h-287l-24 -446h254l-9 -178h-253l-27 -490h287l-9 -178h-479zM179 1809h178l78 -242h-138z" />
<glyph unicode="&#xc9;" horiz-adv-x="616" d="M51 0l76 1470h479l-8 -178h-287l-24 -446h254l-9 -178h-253l-27 -490h287l-9 -178h-479zM205 1567l107 242h178l-148 -242h-137z" />
<glyph unicode="&#xca;" horiz-adv-x="616" d="M51 0l76 1470h479l-8 -178h-287l-24 -446h254l-9 -178h-253l-27 -490h287l-9 -178h-479zM116 1567l185 229h118l164 -229h-149l-78 119l-90 -119h-150z" />
<glyph unicode="&#xcb;" horiz-adv-x="616" d="M51 0l76 1470h479l-8 -178h-287l-24 -446h254l-9 -178h-253l-27 -490h287l-9 -178h-479zM133 1567l10 205h162l-10 -205h-162zM413 1567l11 205h161l-10 -205h-162z" />
<glyph unicode="&#xcc;" horiz-adv-x="372" d="M51 0l76 1470h192l-75 -1470h-193zM58 1809h178l78 -242h-138z" />
<glyph unicode="&#xcd;" horiz-adv-x="372" d="M51 0l76 1470h192l-75 -1470h-193zM65 1567l107 242h178l-148 -242h-137z" />
<glyph unicode="&#xce;" horiz-adv-x="372" d="M-8 1567l185 229h118l164 -229h-149l-78 119l-90 -119h-150zM51 0l76 1470h192l-75 -1470h-193z" />
<glyph unicode="&#xcf;" horiz-adv-x="372" d="M4 1567l10 205h162l-10 -205h-162zM51 0l76 1470h192l-75 -1470h-193zM284 1567l11 205h161l-10 -205h-162z" />
<glyph unicode="&#xd0;" horiz-adv-x="776" d="M17 622l10 164h410l-10 -164h-410zM51 0l76 1470h336q270 0 256 -282l-51 -975q-10 -213 -242 -213h-375zM252 178h145q76 0 80 66l49 942q6 106 -80 106h-135z" />
<glyph unicode="&#xd1;" horiz-adv-x="813" d="M51 0l76 1470h192l170 -710l37 710h193l-76 -1470h-192l14 293l-172 670l-49 -963h-193zM219 1567q4 88 48 131t106 47q20 0 34.5 -6t31 -14.5t32.5 -14.5t33 -6q20 4 34.5 17.5t18.5 40.5h104q-6 -90 -55 -136.5t-111 -48.5q-20 0 -37.5 6.5t-33 13.5t-27.5 14t-28 7 q-39 0 -52 -51h-98z" />
<glyph unicode="&#xd2;" d="M53 250l51 969q12 252 244 251h184q231 0 220 -251l-52 -969q-12 -250 -245 -250h-181q-233 0 -221 250zM246 264q-4 -86 82 -86h98q78 0 82 86l51 942q4 86 -82 86h-92q-84 0 -88 -86zM259 1809h178l78 -242h-138z" />
<glyph unicode="&#xd3;" d="M53 250l51 969q12 252 244 251h184q231 0 220 -251l-52 -969q-12 -250 -245 -250h-181q-233 0 -221 250zM246 264q-4 -86 82 -86h98q78 0 82 86l51 942q4 86 -82 86h-92q-84 0 -88 -86zM297 1567l107 242h178l-148 -242h-137z" />
<glyph unicode="&#xd4;" d="M53 250l51 969q12 252 244 251h184q231 0 220 -251l-52 -969q-12 -250 -245 -250h-181q-233 0 -221 250zM204 1567l185 229h118l164 -229h-149l-78 119l-90 -119h-150zM246 264q-4 -86 82 -86h98q78 0 82 86l51 942q4 86 -82 86h-92q-84 0 -88 -86z" />
<glyph unicode="&#xd5;" d="M53 250l51 969q12 252 244 251h184q231 0 220 -251l-52 -969q-12 -250 -245 -250h-181q-233 0 -221 250zM207 1567q4 88 48 131t106 47q20 0 34.5 -6t31 -14.5t32.5 -14.5t33 -6q20 4 34.5 17.5t18.5 40.5h104q-6 -90 -55 -136.5t-111 -48.5q-20 0 -37.5 6.5t-33 13.5 t-27.5 14t-28 7q-39 0 -52 -51h-98zM246 264q-4 -86 82 -86h98q78 0 82 86l51 942q4 86 -82 86h-92q-84 0 -88 -86z" />
<glyph unicode="&#xd6;" d="M53 250l51 969q12 252 244 251h184q231 0 220 -251l-52 -969q-12 -250 -245 -250h-181q-233 0 -221 250zM211 1567l10 205h162l-10 -205h-162zM246 264q-4 -86 82 -86h98q78 0 82 86l51 942q4 86 -82 86h-92q-84 0 -88 -86zM491 1567l11 205h161l-10 -205h-162z" />
<glyph unicode="&#xd7;" horiz-adv-x="757" d="M68 502l122 -131l181 190l176 -207l133 127l-193 193l197 174l-121 131l-180 -193l-172 209l-137 -127l192 -194z" />
<glyph unicode="&#xd8;" d="M53 250l51 969q12 252 244 251h180l29 123h90l-31 -133q145 -41 136 -241l-52 -969q-12 -250 -245 -250h-181h-2l-28 -123h-90l30 133q-141 43 -131 240zM248 279l237 1013h-100q-84 0 -88 -86zM313 178h113q78 0 82 86l51 946z" />
<glyph unicode="&#xd9;" d="M66 281l61 1189h192l-61 -1196q-6 -96 78 -96h80q78 0 84 96l61 1196h193l-62 -1191q-14 -279 -248 -279h-161q-231 0 -217 281zM265 1809h178l78 -242h-138z" />
<glyph unicode="&#xda;" d="M66 281l61 1189h192l-61 -1196q-6 -96 78 -96h80q78 0 84 96l61 1196h193l-62 -1191q-14 -279 -248 -279h-161q-231 0 -217 281zM280 1567l107 242h178l-148 -242h-137z" />
<glyph unicode="&#xdb;" d="M66 281l61 1189h192l-61 -1196q-6 -96 78 -96h80q78 0 84 96l61 1196h193l-62 -1191q-14 -279 -248 -279h-161q-231 0 -217 281zM204 1567l185 229h118l164 -229h-149l-78 119l-90 -119h-150z" />
<glyph unicode="&#xdc;" d="M66 281l61 1189h192l-61 -1196q-6 -96 78 -96h80q78 0 84 96l61 1196h193l-62 -1191q-14 -279 -248 -279h-161q-231 0 -217 281zM217 1567l10 205h162l-10 -205h-162zM497 1567l11 205h161l-10 -205h-162z" />
<glyph unicode="&#xdd;" horiz-adv-x="702" d="M57 1470h191l112 -639h7l163 639h191l-281 -929l-28 -541h-193l29 541zM229 1567l107 242h178l-148 -242h-137z" />
<glyph unicode="&#xde;" horiz-adv-x="755" d="M51 0l76 1470h190l-12 -245h187q229 0 217 -252l-15 -264q-14 -248 -248 -248h-180l-22 -461h-193zM276 639h146q76 0 80 86l12 236q4 86 -82 86h-135z" />
<glyph unicode="&#xdf;" horiz-adv-x="868" d="M51 0l64 1225q12 246 233 245h174q231 0 219 -249l-12 -230q-10 -199 -149 -209l-2 -10q211 -6 200 -223l-18 -340q-10 -209 -230 -209h-211l9 178h159q76 0 80 86l17 291q4 80 -64 80h-127l15 285h69q55 0 60 57l10 225q6 90 -76 90h-80q-78 0 -84 -90l-61 -1202h-195z " />
<glyph unicode="&#xe0;" horiz-adv-x="765" d="M41 0l63 1219q12 252 244 251h144q231 0 219 -251l-64 -1219h-192l26 539h-221l-27 -539h-192zM250 1823h178l78 -242h-138zM270 717h222l26 489q4 86 -80 86h-53q-84 0 -88 -86z" />
<glyph unicode="&#xe1;" horiz-adv-x="765" d="M41 0l63 1219q12 252 244 251h144q231 0 219 -251l-64 -1219h-192l26 539h-221l-27 -539h-192zM270 717h222l26 489q4 86 -80 86h-53q-84 0 -88 -86zM272 1581l107 242h178l-148 -242h-137z" />
<glyph unicode="&#xe2;" horiz-adv-x="765" d="M41 0l63 1219q12 252 244 251h144q231 0 219 -251l-64 -1219h-192l26 539h-221l-27 -539h-192zM41 0l63 1219q12 252 244 251h144q231 0 219 -251l-64 -1219h-192l26 539h-221l-27 -539h-192zM188 1581l185 229h118l164 -229h-149l-78 119l-90 -119h-150zM270 717h222 l26 489q4 86 -80 86h-53q-84 0 -88 -86zM270 717h222l26 489q4 86 -80 86h-53q-84 0 -88 -86z" />
<glyph unicode="&#xe3;" horiz-adv-x="765" d="M41 0l63 1219q12 252 244 251h144q231 0 219 -251l-64 -1219h-192l26 539h-221l-27 -539h-192zM197 1561q4 88 48 131t106 47q20 0 34.5 -6t31 -14.5t32.5 -14.5t33 -6q20 4 34.5 17.5t18.5 40.5h104q-6 -90 -55 -136.5t-111 -48.5q-20 0 -37.5 6.5t-33 13.5t-27.5 14 t-28 7q-39 0 -52 -51h-98zM270 717h222l26 489q4 86 -80 86h-53q-84 0 -88 -86z" />
<glyph unicode="&#xe4;" horiz-adv-x="765" d="M41 0l63 1219q12 252 244 251h144q231 0 219 -251l-64 -1219h-192l26 539h-221l-27 -539h-192zM191 1561l10 205h162l-10 -205h-162zM270 717h222l26 489q4 86 -80 86h-53q-84 0 -88 -86zM471 1561l11 205h161l-10 -205h-162z" />
<glyph unicode="&#xe5;" horiz-adv-x="765" d="M41 0l63 1219q12 252 244 251h144q231 0 219 -251l-64 -1219h-192l26 539h-221l-27 -539h-192zM270 717h222l26 489q4 86 -80 86h-53q-84 0 -88 -86zM284 1665q-2 70 45 115t107 45q63 0 106 -45t45 -115q-2 -68 -45 -112.5t-106 -44.5q-59 0 -106.5 45t-45.5 112z M370 1665q-2 -31 17.5 -51t48.5 -20t48 20t21 51q-2 31 -21.5 51.5t-47.5 20.5q-29 0 -48.5 -20.5t-17.5 -51.5z" />
<glyph unicode="&#xe6;" horiz-adv-x="1021" d="M41 0l63 1219q12 252 244 251h662l-9 -178h-286l-25 -446h254l-8 -178h-254l-27 -490h287l-8 -178h-479l26 539h-219l-26 -539h-195zM272 717h220l30 575h-135q-84 0 -88 -86z" />
<glyph unicode="&#xe7;" horiz-adv-x="727" d="M53 250l51 971q12 250 244 249h123q231 0 219 -249l-8 -166h-193l9 151q4 86 -82 86h-39q-76 0 -80 -86l-51 -942q-4 -86 71 -86h50q76 0 79 86l7 80h192l-6 -94q-12 -250 -244 -250h-123q-231 0 -219 250zM233 -373l4 92h92q51 0 56 50v28q4 57 -47 58h-80l10 198h104 l-6 -116h19q111 0 104 -119l-4 -78q-6 -111 -119 -113h-133z" />
<glyph unicode="&#xe8;" horiz-adv-x="616" d="M51 0l76 1470h479l-8 -178h-287l-24 -446h254l-9 -178h-253l-27 -490h287l-9 -178h-479zM193 1782h178l78 -242h-138z" />
<glyph unicode="&#xe9;" horiz-adv-x="616" d="M51 0l76 1470h479l-8 -178h-287l-24 -446h254l-9 -178h-253l-27 -490h287l-9 -178h-479zM231 1581l107 242h178l-148 -242h-137z" />
<glyph unicode="&#xea;" horiz-adv-x="616" d="M51 0l76 1470h479l-8 -178h-287l-24 -446h254l-9 -178h-253l-27 -490h287l-9 -178h-479zM127 1561l185 229h118l164 -229h-149l-78 119l-90 -119h-150z" />
<glyph unicode="&#xeb;" horiz-adv-x="616" d="M51 0l76 1470h479l-8 -178h-287l-24 -446h254l-9 -178h-253l-27 -490h287l-9 -178h-479zM148 1563l10 205h162l-10 -205h-162zM428 1563l11 205h161l-10 -205h-162z" />
<glyph unicode="&#xec;" horiz-adv-x="372" d="M51 0l76 1470h192l-75 -1470h-193zM64 1803h178l78 -242h-138z" />
<glyph unicode="&#xed;" horiz-adv-x="372" d="M51 0l76 1470h192l-75 -1470h-193zM71 1565l107 242h178l-148 -242h-137z" />
<glyph unicode="&#xee;" horiz-adv-x="372" d="M-19 1567l185 229h118l164 -229h-149l-78 119l-90 -119h-150zM51 0l76 1470h192l-75 -1470h-193z" />
<glyph unicode="&#xef;" horiz-adv-x="372" d="M-2 1561l10 205h162l-10 -205h-162zM51 0l76 1470h192l-75 -1470h-193zM278 1561l11 205h161l-10 -205h-162z" />
<glyph unicode="&#xf0;" horiz-adv-x="776" d="M20 624l10 164h398l-9 -164h-399zM51 0l76 1470h336q270 0 256 -282l-51 -975q-10 -213 -242 -213h-375zM252 178h145q76 0 80 66l49 942q6 106 -80 106h-135z" />
<glyph unicode="&#xf1;" horiz-adv-x="772" d="M51 0l76 1470h192l170 -710l37 710h193l-76 -1470h-192l14 293l-172 670l-49 -963h-193zM201 1561q4 88 48 131t106 47q20 0 34.5 -6t31 -14.5t32.5 -14.5t33 -6q20 4 34.5 17.5t18.5 40.5h104q-6 -90 -55 -136.5t-111 -48.5q-20 0 -37.5 6.5t-33 13.5t-27.5 14t-28 7 q-39 0 -52 -51h-98z" />
<glyph unicode="&#xf2;" d="M53 250l51 969q12 252 244 251h184q231 0 220 -251l-52 -969q-12 -250 -245 -250h-181q-233 0 -221 250zM246 264q-4 -86 82 -86h98q78 0 82 86l51 942q4 86 -82 86h-92q-84 0 -88 -86zM254 1803h178l78 -242h-138z" />
<glyph unicode="&#xf3;" d="M53 250l51 969q12 252 244 251h184q231 0 220 -251l-52 -969q-12 -250 -245 -250h-181q-233 0 -221 250zM246 264q-4 -86 82 -86h98q78 0 82 86l51 942q4 86 -82 86h-92q-84 0 -88 -86zM297 1561l107 242h178l-148 -242h-137z" />
<glyph unicode="&#xf4;" d="M53 250l51 969q12 252 244 251h184q231 0 220 -251l-52 -969q-12 -250 -245 -250h-181q-233 0 -221 250zM198 1561l185 229h118l164 -229h-149l-78 119l-90 -119h-150zM246 264q-4 -86 82 -86h98q78 0 82 86l51 942q4 86 -82 86h-92q-84 0 -88 -86z" />
<glyph unicode="&#xf5;" d="M53 250l51 969q12 252 244 251h184q231 0 220 -251l-52 -969q-12 -250 -245 -250h-181q-233 0 -221 250zM207 1561q4 88 48 131t106 47q20 0 34.5 -6t31 -14.5t32.5 -14.5t33 -6q20 4 34.5 17.5t18.5 40.5h104q-6 -90 -55 -136.5t-111 -48.5q-20 0 -37.5 6.5t-33 13.5 t-27.5 14t-28 7q-39 0 -52 -51h-98zM246 264q-4 -86 82 -86h98q78 0 82 86l51 942q4 86 -82 86h-92q-84 0 -88 -86z" />
<glyph unicode="&#xf6;" d="M53 250l51 969q12 252 244 251h184q231 0 220 -251l-52 -969q-12 -250 -245 -250h-181q-233 0 -221 250zM215 1561l10 205h162l-10 -205h-162zM246 264q-4 -86 82 -86h98q78 0 82 86l51 942q4 86 -82 86h-92q-84 0 -88 -86zM495 1561l11 205h161l-10 -205h-162z" />
<glyph unicode="&#xf7;" horiz-adv-x="884" d="M45 614l10 177h783l-11 -177h-782zM313 231l15 252h204l-14 -252h-205zM350 934l15 252h204l-14 -252h-205z" />
<glyph unicode="&#xf8;" d="M53 250l51 969q12 252 244 251h180l29 123h90l-31 -133q145 -41 136 -241l-52 -969q-12 -250 -245 -250h-181h-2l-28 -123h-90l30 133q-141 43 -131 240zM248 279l237 1013h-100q-84 0 -88 -86zM313 178h113q78 0 82 86l51 946z" />
<glyph unicode="&#xf9;" d="M66 281l61 1189h192l-61 -1196q-6 -96 78 -96h80q78 0 84 96l61 1196h193l-62 -1191q-14 -279 -248 -279h-161q-231 0 -217 281zM222 1782h178l78 -242h-138z" />
<glyph unicode="&#xfa;" d="M66 281l61 1189h192l-61 -1196q-6 -96 78 -96h80q78 0 84 96l61 1196h193l-62 -1191q-14 -279 -248 -279h-161q-231 0 -217 281zM305 1540l107 242h178l-148 -242h-137z" />
<glyph unicode="&#xfb;" d="M66 281l61 1189h192l-61 -1196q-6 -96 78 -96h80q78 0 84 96l61 1196h193l-62 -1191q-14 -279 -248 -279h-161q-231 0 -217 281zM196 1561l185 229h118l164 -229h-149l-78 119l-90 -119h-150z" />
<glyph unicode="&#xfc;" d="M66 281l61 1189h192l-61 -1196q-6 -96 78 -96h80q78 0 84 96l61 1196h193l-62 -1191q-14 -279 -248 -279h-161q-231 0 -217 281zM215 1561l10 205h162l-10 -205h-162zM495 1561l11 205h161l-10 -205h-162z" />
<glyph unicode="&#xfd;" horiz-adv-x="702" d="M57 1470h191l112 -639h7l163 639h191l-281 -929l-28 -541h-193l29 541zM233 1540l107 242h178l-148 -242h-137z" />
<glyph unicode="&#xfe;" horiz-adv-x="755" d="M51 0l76 1470h190l-12 -245h187q229 0 217 -252l-15 -264q-14 -248 -248 -248h-180l-22 -461h-193zM276 639h146q76 0 80 86l12 236q4 86 -82 86h-135z" />
<glyph unicode="&#xff;" horiz-adv-x="702" d="M57 1470h191l112 -639h7l163 639h191l-281 -929l-28 -541h-193l29 541zM164 1561l10 205h162l-10 -205h-162zM444 1561l11 205h161l-10 -205h-162z" />
<glyph unicode="&#x152;" horiz-adv-x="1073" d="M53 252l51 967q12 252 242 251h238l78 -61l2 61h405l-8 -180h-285l-24 -444h254l-9 -178h-254l-26 -490h284l-8 -178h-405l2 61l-82 -61h-238q-229 0 -217 252zM246 264q-4 -86 82 -86h123q76 0 81 88l48 938q6 88 -80 88h-115q-84 0 -88 -86z" />
<glyph unicode="&#x153;" horiz-adv-x="1073" d="M53 252l51 967q12 252 242 251h238l78 -61l2 61h405l-8 -180h-285l-24 -444h254l-9 -178h-254l-26 -490h284l-8 -178h-405l2 61l-82 -61h-238q-229 0 -217 252zM246 264q-4 -86 82 -86h123q76 0 81 88l48 938q6 88 -80 88h-115q-84 0 -88 -86z" />
<glyph unicode="&#x178;" horiz-adv-x="702" d="M57 1470h191l112 -639h7l163 639h191l-281 -929l-28 -541h-193l29 541zM140 1567l10 205h162l-10 -205h-162zM420 1567l11 205h161l-10 -205h-162z" />
<glyph unicode="&#x2c6;" horiz-adv-x="643" d="M98 1151l185 229h118l164 -229h-149l-78 119l-90 -119h-150z" />
<glyph unicode="&#x2dc;" horiz-adv-x="589" d="M86 1151q4 88 48 131t106 47q20 0 34.5 -6t31 -14.5t32.5 -14.5t33 -6q20 4 34.5 17.5t18.5 40.5h104q-6 -90 -55 -136.5t-111 -48.5q-20 0 -37.5 6.5t-33 13.5t-27.5 14t-28 7q-39 0 -52 -51h-98z" />
<glyph unicode="&#x2000;" horiz-adv-x="915" />
<glyph unicode="&#x2001;" horiz-adv-x="1831" />
<glyph unicode="&#x2002;" horiz-adv-x="915" />
<glyph unicode="&#x2003;" horiz-adv-x="1831" />
<glyph unicode="&#x2004;" horiz-adv-x="610" />
<glyph unicode="&#x2005;" horiz-adv-x="457" />
<glyph unicode="&#x2006;" horiz-adv-x="305" />
<glyph unicode="&#x2007;" horiz-adv-x="305" />
<glyph unicode="&#x2008;" horiz-adv-x="228" />
<glyph unicode="&#x2009;" horiz-adv-x="366" />
<glyph unicode="&#x200a;" horiz-adv-x="101" />
<glyph unicode="&#x2010;" horiz-adv-x="491" d="M18 575l11 164h442l-10 -164h-443z" />
<glyph unicode="&#x2011;" horiz-adv-x="491" d="M18 575l11 164h442l-10 -164h-443z" />
<glyph unicode="&#x2012;" horiz-adv-x="491" d="M18 575l11 164h442l-10 -164h-443z" />
<glyph unicode="&#x2013;" horiz-adv-x="573" d="M-2 594l4 145h573l-6 -145h-571z" />
<glyph unicode="&#x2014;" horiz-adv-x="942" d="M-2 594l4 145h942l-6 -145h-940z" />
<glyph unicode="&#x2018;" horiz-adv-x="321" d="M49 1014l10 194l109 265h117l-105 -265h94l-14 -276h-135q-80 0 -76 82z" />
<glyph unicode="&#x2019;" horiz-adv-x="303" d="M16 932l105 264h-94l14 277h135q80 0 76 -82l-10 -195l-109 -264h-117z" />
<glyph unicode="&#x201a;" horiz-adv-x="323" d="M-45 -303l105 264h-94l14 277h135q80 0 76 -82l-10 -195l-109 -264h-117z" />
<glyph unicode="&#x201c;" horiz-adv-x="641" d="M51 1014l10 194l109 265h117l-107 -265h94l-14 -276h-133q-80 0 -76 82zM367 1014l10 194l110 265h115l-104 -265h94l-14 -276h-134q-82 0 -77 82z" />
<glyph unicode="&#x201d;" horiz-adv-x="641" d="M37 932l104 264h-94l14 277h134q82 0 77 -82l-10 -195l-110 -264h-115zM354 932l107 264h-96l14 277h135q80 0 76 -82l-10 -195l-109 -264h-117z" />
<glyph unicode="&#x201e;" horiz-adv-x="641" d="M-24 -303l104 264h-94l14 277h134q82 0 77 -82l-10 -195l-110 -264h-115zM293 -303l107 264h-96l14 277h135q80 0 76 -82l-10 -195l-109 -264h-117z" />
<glyph unicode="&#x2022;" horiz-adv-x="385" d="M-8 596l16 373h266l-18 -373h-264z" />
<glyph unicode="&#x2026;" horiz-adv-x="976" d="M51 0l15 250h204l-14 -250h-205zM377 0l15 250h204l-14 -250h-205zM702 0l15 250h204l-14 -250h-205z" />
<glyph unicode="&#x202f;" horiz-adv-x="366" />
<glyph unicode="&#x2039;" horiz-adv-x="462" d="M25 713l190 -426h166l-184 426l227 426h-166z" />
<glyph unicode="&#x203a;" horiz-adv-x="464" d="M39 287h166l235 426l-192 426h-166l188 -426z" />
<glyph unicode="&#x205f;" horiz-adv-x="457" />
<glyph unicode="&#x20ac;" horiz-adv-x="770" d="M10 592l6 121h74l4 86h-74l7 119h73l17 301q12 252 241 251h136q233 0 221 -251l-4 -80h-193l2 65q6 88 -84 88h-39q-84 0 -88 -86l-16 -288h190l-6 -119h-190l-4 -86h123l-7 -121h-123l-18 -328q-4 -86 80 -86h49q80 0 84 82l4 59h193l-4 -71q-12 -248 -246 -248h-135 q-229 0 -217 258l18 334h-74z" />
<glyph unicode="&#x2122;" horiz-adv-x="968" d="M55 1366h113l-39 -752h111l39 752h114l4 104h-338zM430 614l43 856h125l78 -501l129 501h125l-43 -856h-113l41 562l-106 -406h-86l-64 406l-16 -562h-113z" />
<glyph unicode="&#xe000;" horiz-adv-x="1474" d="M0 0v1475h1475v-1475h-1475z" />
<glyph unicode="&#xfb01;" horiz-adv-x="950" d="M51 0l76 1470h578h192l-76 -1470h-192l67 1292h-385l-24 -446h252l-9 -178h-251l-35 -668h-193z" />
<glyph unicode="&#xfb02;" horiz-adv-x="1146" d="M51 0l76 1470h578h192l-68 -1292h267l-9 -178h-458l67 1292h-385l-24 -446h254l-9 -178h-253l-35 -668h-193z" />
</font>
</defs>
</svg>
