<?xml version="1.0" encoding="utf-8"?>
<!DOCTYPE svg PUBLIC "-//W3C//DTD SVG 1.1//EN" "http://www.w3.org/Graphics/SVG/1.1/DTD/svg11.dtd">
<svg version="1.1" id="Layer_1" xmlns="http://www.w3.org/2000/svg" xmlns:xlink="http://www.w3.org/1999/xlink" x="0px" y="0px"
	 width="110px" height="125px" viewBox="0 0 220.071 250" enable-background="new 0 0 220.071 250" xml:space="preserve">
<path fill="#FFFFFF" d="M0,0l20.006,224.459l89.785,25.376l90.272-25.376L220.071,0H0z M178.594,53.191l-1.471,14.146l-0.485,5.855
	h-66.847l0,0H71.239l2.441,28.3h36.596h56.113h7.804l-0.971,7.321l-6.344,72.703l-0.484,4.882l-56.118,15.479v0.137h-0.485
	l-56.603-15.611l-3.417-43.43h12.686h14.634l1.956,21.95l30.743,8.299l0.485-0.132l30.255-8.167l3.417-35.62h-33.667H48.309
	l-6.833-76.117l-0.488-7.321h68.803h0.485h68.803L178.594,53.191z"/>
</svg>